<svg xmlns="http://www.w3.org/2000/svg" viewBox="0 0 400 400">
  <rect width="400" height="400" fill="#F7F5F1"/>
  <g>
    <rect x="60" y="60" width="280" height="280" fill="none" stroke="#111827" stroke-width="3"/>
    <g stroke="#D1D5DB" stroke-width="1">
      <line x1="100" y1="60" x2="100" y2="340"/><line x1="140" y1="60" x2="140" y2="340"/>
      <line x1="180" y1="60" x2="180" y2="340"/><line x1="220" y1="60" x2="220" y2="340"/>
      <line x1="260" y1="60" x2="260" y2="340"/><line x1="300" y1="60" x2="300" y2="340"/>
      <line x1="60" y1="100" x2="340" y2="100"/><line x1="60" y1="140" x2="340" y2="140"/>
      <line x1="60" y1="180" x2="340" y2="180"/><line x1="60" y1="220" x2="340" y2="220"/>
      <line x1="60" y1="260" x2="340" y2="260"/><line x1="60" y1="300" x2="340" y2="300"/>
    </g>
    <g fill="#F2A93B">
      <rect x="140" y="100" width="40" height="40"/>
      <rect x="180" y="140" width="40" height="40"/>
      <rect x="140" y="180" width="40" height="40"/>
      <rect x="220" y="180" width="40" height="40"/>
      <rect x="260" y="220" width="40" height="40"/>
      <rect x="220" y="260" width="40" height="40"/>
      <rect x="100" y="260" width="40" height="40"/>
    </g>
  </g>
</svg>
